<?xml version="1.0" encoding="UTF-8"?>
<svg xmlns="http://www.w3.org/2000/svg" id="logo_LENOIR_MEC_blanc" data-name="logo LENOIR MEC blanc" width="218.23" height="52.898" viewBox="0 0 218.23 52.898">
  <path id="Tracé_55" data-name="Tracé 55" d="M131.6,165.314h-.092l-.526-5.814h-3.914l-1.969,9.27h2.495l1.259-7.1h.069l.87,7.1h2.129l3.845-7.1h.092l-1.762,7.1h2.472l1.969-9.27h-4.029Z" transform="translate(-96.465 -122.991)" fill="#FFFFFF"></path>
  <path id="Tracé_56" data-name="Tracé 56" d="M185.765,167.168h3.319l.137,1.6h2.518l-.847-9.27h-3.754l-4.738,9.27h2.564Zm2.907-5.814h0l.3,4.006H186.68l1.969-4.006Z" transform="translate(-140.649 -122.991)" fill="#FFFFFF"></path>
  <path id="Tracé_57" data-name="Tracé 57" d="M261.2,172.1Z" transform="translate(-201.412 -132.707)" fill="#FFFFFF"></path>
  <path id="Tracé_58" data-name="Tracé 58" d="M238.3,161.976h2.495a5.346,5.346,0,0,0,.114-1.076,1.829,1.829,0,0,0-.252-1.076,1.406,1.406,0,0,0-.732-.572,3.739,3.739,0,0,0-1.053-.206,13.87,13.87,0,0,0-1.556-.046,11.929,11.929,0,0,0-1.946.137,4.317,4.317,0,0,0-1.442.5,3.284,3.284,0,0,0-1.1,1.076,5.671,5.671,0,0,0-.687,1.831l-.5,2.4a6.054,6.054,0,0,0-.137,1.259,2.42,2.42,0,0,0,.252,1.145,1.641,1.641,0,0,0,.732.687,3.925,3.925,0,0,0,1.167.32,9.926,9.926,0,0,0,1.671.092,12.891,12.891,0,0,0,2.106-.137,3.171,3.171,0,0,0,1.328-.526,2.818,2.818,0,0,0,.847-1.1,9.66,9.66,0,0,0,.6-1.923l.343-1.625H236.33l-.366,1.717h1.717a3.7,3.7,0,0,1-.252.8,1.3,1.3,0,0,1-.343.481,1.23,1.23,0,0,1-.526.229,1.943,1.943,0,0,1-.8.069,2.967,2.967,0,0,1-1.213-.183c-.252-.114-.366-.389-.366-.8a2.862,2.862,0,0,1,.114-.824l.32-1.511a6.576,6.576,0,0,1,.275-1.007,2,2,0,0,1,.343-.572,1.25,1.25,0,0,1,.618-.343,4.2,4.2,0,0,1,1.053-.114h.572a1.338,1.338,0,0,1,.412.092.7.7,0,0,1,.3.206.68.68,0,0,1,.114.412v.183Z" transform="translate(-178.51 -122.606)" fill="#FFFFFF"></path>
  <path id="Tracé_59" data-name="Tracé 59" d="M280.114,161.652l1.122,7.119h4.212l1.969-9.27h-2.472l-1.35,7.119H283.5l-1.145-7.119h-4.189l-1.969,9.27h2.472l1.35-7.119Z" transform="translate(-212.979 -122.991)" fill="#FFFFFF"></path>
  <path id="Tracé_60" data-name="Tracé 60" d="M336.14,161.537l.412-2.037h-6.684l-1.968,9.27h6.775l.435-2.037h-4.3l.389-1.808h3.96l.366-1.717h-3.96l.366-1.671Z" transform="translate(-252.845 -122.991)" fill="#FFFFFF"></path>
  <path id="Tracé_61" data-name="Tracé 61" d="M372.4,161.652h2.38l-1.511,7.119h2.472l1.511-7.119h2.495l.458-2.152h-7.348Z" transform="translate(-287.159 -122.991)" fill="#FFFFFF"></path>
  <path id="Tracé_62" data-name="Tracé 62" d="M410.341,159.5h-2.472l-1.969,9.27h2.472Z" transform="translate(-312.991 -122.991)" fill="#FFFFFF"></path>
  <path id="Tracé_63" data-name="Tracé 63" d="M435.586,162.144l-.069.366h2.541l.069-.366a5.233,5.233,0,0,0,.137-1.167,2.028,2.028,0,0,0-.206-.984,1.255,1.255,0,0,0-.618-.572,2.949,2.949,0,0,0-.984-.252,7.956,7.956,0,0,0-1.465-.069,11.546,11.546,0,0,0-1.946.137,4.027,4.027,0,0,0-1.419.5,2.955,2.955,0,0,0-1.076,1.053,5.671,5.671,0,0,0-.687,1.831l-.5,2.4a5.09,5.09,0,0,0-.16,1.3,2.323,2.323,0,0,0,.275,1.213,1.692,1.692,0,0,0,.778.664,3.362,3.362,0,0,0,1.122.275,15.493,15.493,0,0,0,1.6.046,12.14,12.14,0,0,0,1.762-.114,3.3,3.3,0,0,0,1.3-.572,2.7,2.7,0,0,0,.938-1.053,8.172,8.172,0,0,0,.481-1.579l.046-.275h-2.541l-.046.275a1.293,1.293,0,0,1-.526.961,2.939,2.939,0,0,1-1.236.206,1.863,1.863,0,0,1-1.03-.183.831.831,0,0,1-.275-.641,5.887,5.887,0,0,1,.183-1.1l.3-1.442a6.514,6.514,0,0,1,.229-.87,1.585,1.585,0,0,1,.32-.5,1.425,1.425,0,0,1,.526-.275,3.944,3.944,0,0,1,1.877.046.574.574,0,0,1,.32.6v.16Z" transform="translate(-330.958 -122.683)" fill="#FFFFFF"></path>
  <path id="Tracé_64" data-name="Tracé 64" d="M497.037,165.64a5.28,5.28,0,0,0-.137,1.19,2.019,2.019,0,0,0,.252,1.076,1.3,1.3,0,0,0,.687.572,3.421,3.421,0,0,0,1.007.206,10.507,10.507,0,0,0,1.488.046,9.181,9.181,0,0,0,2.335-.252,3.23,3.23,0,0,0,1.35-.641,2.257,2.257,0,0,0,.641-.87,11.082,11.082,0,0,0,.343-1.236v-.069a5.1,5.1,0,0,0,.137-1.053,1.391,1.391,0,0,0-.16-.732,1.231,1.231,0,0,0-.5-.458,3.442,3.442,0,0,0-.893-.275,14.422,14.422,0,0,0-1.442-.16h-.092l-1.007-.046a1.5,1.5,0,0,1-.664-.114c-.114-.046-.183-.183-.183-.389a.794.794,0,0,1,.046-.3.943.943,0,0,1,.389-.618,3.342,3.342,0,0,1,1.236-.183,2.637,2.637,0,0,1,.984.092.436.436,0,0,1,.252.458,1.7,1.7,0,0,1-.046.412h2.38l.069-.389a3.1,3.1,0,0,0,.092-.847,1.736,1.736,0,0,0-.252-.984,1.654,1.654,0,0,0-.71-.526,4.212,4.212,0,0,0-.961-.206,10.443,10.443,0,0,0-1.373-.046,17.474,17.474,0,0,0-1.763.092,3.525,3.525,0,0,0-1.236.343,2.361,2.361,0,0,0-.938.847,4.7,4.7,0,0,0-.6,1.557,5.909,5.909,0,0,0-.114,1.053,1.718,1.718,0,0,0,.206.893,1.35,1.35,0,0,0,.572.5,2.7,2.7,0,0,0,.824.229c.3.046.755.092,1.3.137h.252l.526.046h.092a3.976,3.976,0,0,1,.893.114.289.289,0,0,1,.206.32.918.918,0,0,1-.069.412c-.092.366-.229.618-.458.71a4.236,4.236,0,0,1-1.259.137,3.848,3.848,0,0,1-1.1-.114c-.206-.069-.3-.229-.3-.5a.788.788,0,0,1,.069-.435Z" transform="translate(-383.161 -122.837)" fill="#FFFFFF"></path>
  <path id="Tracé_65" data-name="Tracé 65" d="M547.623,163.071h-.092l-.893-3.571H543.8l2.014,6.02-.687,3.25H547.6l.687-3.25h-.023l4.669-6.02h-2.861Z" transform="translate(-419.326 -122.991)" fill="#FFFFFF"></path>
  <path id="Tracé_66" data-name="Tracé 66" d="M583.137,165.64a5.275,5.275,0,0,0-.137,1.19,2.019,2.019,0,0,0,.252,1.076,1.3,1.3,0,0,0,.687.572,3.421,3.421,0,0,0,1.007.206,10.507,10.507,0,0,0,1.488.046,9.182,9.182,0,0,0,2.335-.252,3.23,3.23,0,0,0,1.351-.641,2.045,2.045,0,0,0,.641-.87,11.068,11.068,0,0,0,.343-1.236v-.069a5.1,5.1,0,0,0,.137-1.053,1.391,1.391,0,0,0-.16-.732,1.23,1.23,0,0,0-.5-.458,3.44,3.44,0,0,0-.893-.275,14.421,14.421,0,0,0-1.442-.16h-.092l-1.007-.046a1.5,1.5,0,0,1-.664-.114c-.115-.046-.183-.183-.183-.389a.8.8,0,0,1,.046-.3.943.943,0,0,1,.389-.618,3.342,3.342,0,0,1,1.236-.183,2.638,2.638,0,0,1,.984.092.436.436,0,0,1,.252.458,1.705,1.705,0,0,1-.046.412h2.381l.069-.389a3.1,3.1,0,0,0,.092-.847,1.736,1.736,0,0,0-.252-.984,1.654,1.654,0,0,0-.71-.526,3.269,3.269,0,0,0-.961-.206,10.444,10.444,0,0,0-1.373-.046,17.476,17.476,0,0,0-1.763.092,3.525,3.525,0,0,0-1.236.343,2.361,2.361,0,0,0-.938.847,4.7,4.7,0,0,0-.6,1.557,5.909,5.909,0,0,0-.114,1.053,1.717,1.717,0,0,0,.206.893,1.229,1.229,0,0,0,.572.5,2.7,2.7,0,0,0,.824.229c.3.046.755.092,1.3.137h.252l.526.046h.092a3.977,3.977,0,0,1,.893.114.289.289,0,0,1,.206.32.919.919,0,0,1-.069.412c-.092.366-.229.618-.458.71a4.236,4.236,0,0,1-1.259.137,3.849,3.849,0,0,1-1.1-.114c-.206-.069-.3-.229-.3-.5a.788.788,0,0,1,.069-.435Z" transform="translate(-449.553 -122.837)" fill="#FFFFFF"></path>
  <path id="Tracé_67" data-name="Tracé 67" d="M628.9,161.652h2.38l-1.511,7.119h2.472l1.511-7.119h2.495l.458-2.152h-7.348Z" transform="translate(-484.947 -122.991)" fill="#FFFFFF"></path>
  <path id="Tracé_68" data-name="Tracé 68" d="M670.64,161.537l.412-2.037h-6.684l-1.969,9.27h6.775l.435-2.037h-4.3l.389-1.808h3.96l.366-1.717h-3.96l.366-1.671Z" transform="translate(-510.779 -122.991)" fill="#FFFFFF"></path>
  <path id="Tracé_69" data-name="Tracé 69" d="M715.068,168.77l1.969-9.27h-4.029l-2.907,5.814h-.092l-.526-5.814h-3.914l-1.969,9.27h2.495l1.259-7.1h.069l.87,7.1h2.129l3.846-7.1h.091l-1.762,7.1Z" transform="translate(-542.549 -122.991)" fill="#FFFFFF"></path>
  <path id="Tracé_70" data-name="Tracé 70" d="M765.837,165.64a5.275,5.275,0,0,0-.137,1.19,2.02,2.02,0,0,0,.252,1.076,1.3,1.3,0,0,0,.687.572,3.42,3.42,0,0,0,1.007.206,10.507,10.507,0,0,0,1.488.046,9.183,9.183,0,0,0,2.335-.252,3.23,3.23,0,0,0,1.35-.641,2.045,2.045,0,0,0,.641-.87,11.083,11.083,0,0,0,.343-1.236v-.069a5.1,5.1,0,0,0,.137-1.053,1.39,1.39,0,0,0-.16-.732,1.229,1.229,0,0,0-.5-.458,3.441,3.441,0,0,0-.893-.275,14.429,14.429,0,0,0-1.442-.16h-.091l-1.007-.046a1.5,1.5,0,0,1-.664-.114c-.114-.046-.183-.183-.183-.389a.8.8,0,0,1,.046-.3.943.943,0,0,1,.389-.618,3.342,3.342,0,0,1,1.236-.183,2.637,2.637,0,0,1,.984.092.436.436,0,0,1,.252.458,1.708,1.708,0,0,1-.046.412h2.381l.069-.389a3.092,3.092,0,0,0,.092-.847,1.736,1.736,0,0,0-.252-.984,1.655,1.655,0,0,0-.71-.526,3.269,3.269,0,0,0-.961-.206,10.444,10.444,0,0,0-1.373-.046,17.47,17.47,0,0,0-1.763.092,3.524,3.524,0,0,0-1.236.343,2.36,2.36,0,0,0-.938.847,4.7,4.7,0,0,0-.6,1.557,5.915,5.915,0,0,0-.114,1.053,1.718,1.718,0,0,0,.206.893,1.229,1.229,0,0,0,.572.5,2.7,2.7,0,0,0,.824.229c.3.046.755.092,1.3.137h.252l.526.046h.092a3.976,3.976,0,0,1,.893.114.289.289,0,0,1,.206.32.918.918,0,0,1-.069.412c-.092.366-.229.618-.458.71a4.236,4.236,0,0,1-1.259.137,3.848,3.848,0,0,1-1.1-.114c-.206-.069-.3-.229-.3-.5a.789.789,0,0,1,.069-.435Z" transform="translate(-590.434 -122.837)" fill="#FFFFFF"></path>
  <path id="Tracé_71" data-name="Tracé 71" d="M16.1,131.136H224.075l.961-5.036H17.061Z" transform="translate(-12.415 -97.236)" fill="#FFFFFF"></path>
  <path id="Tracé_72" data-name="Tracé 72" d="M0,214.136H207.975l.961-5.036H.984Z" transform="translate(0 -161.238)" fill="#FFFFFF"></path>
  <path id="Tracé_73" data-name="Tracé 73" d="M42.726,18.495H33.067L36.66,0H28.992L24.3,24.24H41.6Z" transform="translate(-18.738 0)" fill="#FFFFFF"></path>
  <path id="Tracé_74" data-name="Tracé 74" d="M124.666,49.979h-9.453l.664-3.411h9.453l1.122-5.768H109.284L106.4,55.724h17.144Z" transform="translate(-82.045 -31.461)" fill="#FFFFFF"></path>
  <path id="Tracé_75" data-name="Tracé 75" d="M140.366,0H123.222L122.1,5.768h17.144Z" transform="translate(-94.152 0)" fill="#FFFFFF"></path>
  <path id="Tracé_76" data-name="Tracé 76" d="M196.37,24.263,199.8,5.768h3.571c1.259,0,2.06.206,2.381.664a2.453,2.453,0,0,1,.16,1.808l-2.976,16h7.37l3.044-16.32a10.774,10.774,0,0,0,.16-3.456,4.329,4.329,0,0,0-1.076-2.358A5.325,5.325,0,0,0,209.646.435,18.751,18.751,0,0,0,205.252,0H193.509L189,24.263Z" transform="translate(-145.739 0)" fill="#FFFFFF"></path>
  <path id="Tracé_77" data-name="Tracé 77" d="M440.49,0h-7.668L431.7,5.768h7.668Z" transform="translate(-332.886 0)" fill="#FFFFFF"></path>
  <path id="Tracé_78" data-name="Tracé 78" d="M426.652,40.8h-7.668L416.1,55.724h7.668Z" transform="translate(-320.856 -31.461)" fill="#FFFFFF"></path>
  <path id="Tracé_79" data-name="Tracé 79" d="M475.812,6.2a1.4,1.4,0,0,1,.343,1.328,1.965,1.965,0,0,1-.664,1.167,1.849,1.849,0,0,1-.916.481,7.23,7.23,0,0,1-1.625.137h-8.7L463.2,15.084h6.272a9.942,9.942,0,0,1,2.289.229,2.1,2.1,0,0,1,1.213.71,3.2,3.2,0,0,1,.275,2.495L472.2,24.24h7.3l1.19-6.432a5.172,5.172,0,0,0-.343-3.548,2.919,2.919,0,0,0-1.076-1.1,6.978,6.978,0,0,0-1.991-.641,12.508,12.508,0,0,0,2.793-.824,6.718,6.718,0,0,0,1.9-1.35,7.121,7.121,0,0,0,2.014-3.868,5.808,5.808,0,0,0,0-2.266,5.162,5.162,0,0,0-.824-1.877A4.586,4.586,0,0,0,481.58.984a6.153,6.153,0,0,0-2.129-.71A27.6,27.6,0,0,0,475.24,0h-9.247l-1.1,5.768h9A2.954,2.954,0,0,1,475.812,6.2Z" transform="translate(-357.175 0)" fill="#FFFFFF"></path>
  <path id="Tracé_80" data-name="Tracé 80" d="M666.619,55.724,669.5,40.8h-7.119L659.5,55.724Z" transform="translate(-508.543 -31.461)" fill="#FFFFFF"></path>
  <path id="Tracé_81" data-name="Tracé 81" d="M616.162,5.768h12.956a7.192,7.192,0,0,1,1.579.137,2.03,2.03,0,0,1,.916.458,1.355,1.355,0,0,1,.412.824,4.8,4.8,0,0,1-.137,1.488L628.865,24.24h7.668L639.6,8.4a12.994,12.994,0,0,0,.275-3.571,4.788,4.788,0,0,0-.893-2.4A5.11,5.11,0,0,0,635.916.435,25.486,25.486,0,0,0,630.491,0h-20.9L604.9,24.263h7.668l3.594-18.495Z" transform="translate(-466.441 0)" fill="#FFFFFF"></path>
  <path id="Tracé_82" data-name="Tracé 82" d="M775.675,55.724l1.122-5.745H765.513l.664-3.411h11.285l1.122-5.768h-19L756.7,55.724Z" transform="translate(-583.494 -31.461)" fill="#FFFFFF"></path>
  <path id="Tracé_83" data-name="Tracé 83" d="M792.5,0H773.522L772.4,5.768h18.975Z" transform="translate(-595.6 0)" fill="#FFFFFF"></path>
  <path id="Tracé_84" data-name="Tracé 84" d="M870.338,8.011a8.758,8.758,0,0,1,2.953-1.717,12.9,12.9,0,0,1,3.891-.526h2.838L881.142,0h-3.525a27.465,27.465,0,0,0-6.089.641,15.326,15.326,0,0,0-4.052,1.625,17.1,17.1,0,0,0-3.548,2.7A15.129,15.129,0,0,0,861.319,8.4a12.857,12.857,0,0,0-1.419,3.8,10.122,10.122,0,0,0-.069,3.708,9.38,9.38,0,0,0,5.654,7.119,18.045,18.045,0,0,0,7.164,1.236h3.8l1.122-5.745h-2.518a11.491,11.491,0,0,1-3.96-.549,5.2,5.2,0,0,1-2.381-1.831,4.811,4.811,0,0,1-.847-3.96A7.215,7.215,0,0,1,870.338,8.011Z" transform="translate(-662.912 0)" fill="#FFFFFF"></path>
  <path id="Tracé_85" data-name="Tracé 85" d="M307.74,23.714a14.258,14.258,0,0,0,5.562,1.03,15.181,15.181,0,0,0,5.745-1.053,13.4,13.4,0,0,0,4.669-3.159,13.9,13.9,0,0,0,2.587-3.685A13.153,13.153,0,0,0,327.54,12.5a12.506,12.506,0,0,0-.572-5.791h0a9.032,9.032,0,0,0-3.159-4.235A11.452,11.452,0,0,0,320.192.641a14.2,14.2,0,0,0-4.3-.641,14.636,14.636,0,0,0-9.11,3.067,13.3,13.3,0,0,0-3.594,4.143,13.687,13.687,0,0,0-1.694,5.265,10.414,10.414,0,0,0,6.249,11.239Zm.32-11.262a7.137,7.137,0,0,1,.847-2.609,6.636,6.636,0,0,1,1.785-2.037A7.237,7.237,0,0,1,315.2,6.295a3.957,3.957,0,0,1,2.129.32,5.485,5.485,0,0,1,1.785.916,4.379,4.379,0,0,1,1.557,2.083,5.843,5.843,0,0,1,.275,2.861v-.046a6.788,6.788,0,0,1-1.9,3.983,6.549,6.549,0,0,1-2.312,1.556,7.637,7.637,0,0,1-2.838.526,7.344,7.344,0,0,1-2.747-.5,5.1,5.1,0,0,1-2.014-1.511,5.245,5.245,0,0,1-1.076-4.029Z" transform="translate(-232.41 0)" fill="#FFFFFF"></path>
  <rect id="Rectangle_677" data-name="Rectangle 677" width="9.11" height="2.22" transform="translate(128.296 11.193)" fill="#FFFFFF"></rect>
</svg>
